<!DOCTYPE svg PUBLIC "-//W3C//DTD SVG 1.1//EN" "http://www.w3.org/Graphics/SVG/1.1/DTD/svg11.dtd">
<!-- Uploaded to: SVG Repo, www.svgrepo.com, Transformed by: SVG Repo Mixer Tools -->
<svg width="800px" height="800px" viewBox="0 -0.02 60.031 60.031" xmlns="http://www.w3.org/2000/svg" fill="#000000">
<g id="SVGRepo_bgCarrier" stroke-width="0"/>
<g id="SVGRepo_tracerCarrier" stroke-linecap="round" stroke-linejoin="round"/>
<g id="SVGRepo_iconCarrier">
<defs>
<style> .cls-1 { fill: #ffac33; fill-rule: evenodd; } </style>
</defs>
<path class="cls-1" d="M828.776,237.723l-11.4,8.657a3,3,0,0,0-.993,1.3,2.948,2.948,0,0,0-.162,1.618l3.078,17.135a3,3,0,0,1-1.275,3.011,3.161,3.161,0,0,1-3.326.147l-13.174-7.409a3.156,3.156,0,0,0-3.09,0L785.257,269.6a3.164,3.164,0,0,1-1.55.4,3.13,3.13,0,0,1-1.777-.551,3,3,0,0,1-1.274-3.011l3.076-17.135a2.929,2.929,0,0,0-.16-1.618,3,3,0,0,0-.993-1.3l-11.4-8.657a3,3,0,0,1-1.117-3.085,3.069,3.069,0,0,1,2.391-2.285l14.654-2.967a3.129,3.129,0,0,0,1.28-.577,3.02,3.02,0,0,0,.885-1.074l7.914-16.018a3.131,3.131,0,0,1,5.586,0l7.91,16.018a3.028,3.028,0,0,0,.884,1.074,3.162,3.162,0,0,0,1.281.577l14.655,2.967a3.07,3.07,0,0,1,2.394,2.285A3,3,0,0,1,828.776,237.723Zm-17.121-2.454a9.22,9.22,0,0,1-3.713-1.675,9.12,9.12,0,0,1-2.647-3.216L800,219.658v36.125a9.188,9.188,0,0,1,4.451,1.166l7.839,4.409-1.976-10.994a9.01,9.01,0,0,1,3.454-8.781l6.122-4.647Z" data-name="half rating" id="half_rating" transform="translate(-769.969 -210)"/>
</g>
</svg>